<mxfile host="Electron" modified="2024-10-02T17:38:19.346Z" agent="Mozilla/5.0 (Macintosh; Intel Mac OS X 10_15_7) AppleWebKit/537.36 (KHTML, like Gecko) draw.io/24.5.3 Chrome/124.0.6367.207 Electron/30.0.6 Safari/537.36" etag="-IZQLLVGVDAar1-Rqj7U" version="24.5.3" type="device" pages="2">
  <diagram name="Requirement-analysis" id="ECNVeJSsqjUD-y1ljY6j">
    <mxGraphModel dx="2294" dy="1154" grid="1" gridSize="10" guides="1" tooltips="1" connect="1" arrows="1" fold="1" page="1" pageScale="1" pageWidth="850" pageHeight="1100" math="0" shadow="0">
      <root>
        <mxCell id="0" />
        <mxCell id="1" parent="0" />
        <mxCell id="76KeCXoVacff3B7VgmdV-3" value="&lt;b&gt;&lt;font style=&quot;font-size: 25px;&quot;&gt;Requirement :&amp;nbsp;&lt;/font&gt;&lt;/b&gt;" style="text;html=1;align=center;verticalAlign=middle;resizable=0;points=[];autosize=1;strokeColor=none;fillColor=none;" vertex="1" parent="1">
          <mxGeometry x="80" y="140" width="200" height="40" as="geometry" />
        </mxCell>
        <mxCell id="76KeCXoVacff3B7VgmdV-4" value="&lt;font style=&quot;font-size: 15px;&quot;&gt;I want to &lt;font color=&quot;#009900&quot;&gt;design&lt;/font&gt; &lt;font color=&quot;#990000&quot;&gt;a schooling system&lt;/font&gt; that &lt;font color=&quot;#009900&quot;&gt;allows&lt;/font&gt; &lt;font color=&quot;#990000&quot;&gt;students&lt;/font&gt; to &lt;font color=&quot;#009900&quot;&gt;register&lt;/font&gt; on that &lt;font color=&quot;#990000&quot;&gt;system&lt;/font&gt; and &lt;font color=&quot;#009900&quot;&gt;sign up&lt;/font&gt; to &lt;font color=&quot;#990000&quot;&gt;courses&lt;/font&gt; and &lt;font color=&quot;#009900&quot;&gt;view&lt;/font&gt; their &lt;font color=&quot;#990000&quot;&gt;schedules&lt;/font&gt;.&lt;/font&gt;" style="text;html=1;align=center;verticalAlign=middle;resizable=0;points=[];autosize=1;strokeColor=none;fillColor=none;" vertex="1" parent="1">
          <mxGeometry x="150" y="200" width="900" height="30" as="geometry" />
        </mxCell>
        <mxCell id="76KeCXoVacff3B7VgmdV-13" style="edgeStyle=orthogonalEdgeStyle;rounded=0;orthogonalLoop=1;jettySize=auto;html=1;exitX=1;exitY=0.5;exitDx=0;exitDy=0;entryX=0;entryY=0.5;entryDx=0;entryDy=0;" edge="1" parent="1" source="76KeCXoVacff3B7VgmdV-7" target="76KeCXoVacff3B7VgmdV-8">
          <mxGeometry relative="1" as="geometry" />
        </mxCell>
        <mxCell id="76KeCXoVacff3B7VgmdV-16" value="register" style="edgeLabel;html=1;align=center;verticalAlign=middle;resizable=0;points=[];" vertex="1" connectable="0" parent="76KeCXoVacff3B7VgmdV-13">
          <mxGeometry y="1" relative="1" as="geometry">
            <mxPoint as="offset" />
          </mxGeometry>
        </mxCell>
        <mxCell id="76KeCXoVacff3B7VgmdV-7" value="Student" style="whiteSpace=wrap;html=1;" vertex="1" parent="1">
          <mxGeometry x="425" y="410" width="120" height="60" as="geometry" />
        </mxCell>
        <mxCell id="76KeCXoVacff3B7VgmdV-8" value="School&lt;div&gt;System&lt;/div&gt;" style="whiteSpace=wrap;html=1;" vertex="1" parent="1">
          <mxGeometry x="635" y="410" width="120" height="60" as="geometry" />
        </mxCell>
        <mxCell id="76KeCXoVacff3B7VgmdV-15" style="edgeStyle=orthogonalEdgeStyle;rounded=0;orthogonalLoop=1;jettySize=auto;html=1;exitX=1;exitY=0.5;exitDx=0;exitDy=0;entryX=0;entryY=0.5;entryDx=0;entryDy=0;" edge="1" parent="1" source="76KeCXoVacff3B7VgmdV-9" target="76KeCXoVacff3B7VgmdV-10">
          <mxGeometry relative="1" as="geometry" />
        </mxCell>
        <mxCell id="76KeCXoVacff3B7VgmdV-18" value="view" style="edgeLabel;html=1;align=center;verticalAlign=middle;resizable=0;points=[];" vertex="1" connectable="0" parent="76KeCXoVacff3B7VgmdV-15">
          <mxGeometry x="-0.0889" relative="1" as="geometry">
            <mxPoint as="offset" />
          </mxGeometry>
        </mxCell>
        <mxCell id="76KeCXoVacff3B7VgmdV-9" value="Student" style="whiteSpace=wrap;html=1;" vertex="1" parent="1">
          <mxGeometry x="425" y="600" width="120" height="60" as="geometry" />
        </mxCell>
        <mxCell id="76KeCXoVacff3B7VgmdV-10" value="Schedules" style="whiteSpace=wrap;html=1;" vertex="1" parent="1">
          <mxGeometry x="635" y="600" width="120" height="60" as="geometry" />
        </mxCell>
        <mxCell id="76KeCXoVacff3B7VgmdV-14" style="edgeStyle=orthogonalEdgeStyle;rounded=0;orthogonalLoop=1;jettySize=auto;html=1;exitX=1;exitY=0.5;exitDx=0;exitDy=0;entryX=0;entryY=0.5;entryDx=0;entryDy=0;" edge="1" parent="1" source="76KeCXoVacff3B7VgmdV-11" target="76KeCXoVacff3B7VgmdV-12">
          <mxGeometry relative="1" as="geometry" />
        </mxCell>
        <mxCell id="76KeCXoVacff3B7VgmdV-17" value="sign up" style="edgeLabel;html=1;align=center;verticalAlign=middle;resizable=0;points=[];" vertex="1" connectable="0" parent="76KeCXoVacff3B7VgmdV-14">
          <mxGeometry x="-0.1111" y="2" relative="1" as="geometry">
            <mxPoint as="offset" />
          </mxGeometry>
        </mxCell>
        <mxCell id="76KeCXoVacff3B7VgmdV-11" value="Student" style="whiteSpace=wrap;html=1;" vertex="1" parent="1">
          <mxGeometry x="425" y="510" width="120" height="60" as="geometry" />
        </mxCell>
        <mxCell id="76KeCXoVacff3B7VgmdV-12" value="Courses" style="whiteSpace=wrap;html=1;" vertex="1" parent="1">
          <mxGeometry x="635" y="510" width="120" height="60" as="geometry" />
        </mxCell>
        <mxCell id="76KeCXoVacff3B7VgmdV-19" value="&lt;font style=&quot;font-size: 20px;&quot;&gt;&lt;b&gt;Visualize/Objectify/Concrete Requirements :&amp;nbsp;&lt;/b&gt;&lt;/font&gt;" style="text;html=1;align=center;verticalAlign=middle;resizable=0;points=[];autosize=1;strokeColor=none;fillColor=none;" vertex="1" parent="1">
          <mxGeometry x="100" y="313" width="450" height="40" as="geometry" />
        </mxCell>
        <mxCell id="76KeCXoVacff3B7VgmdV-20" value="&lt;font style=&quot;font-size: 20px;&quot;&gt;&lt;b&gt;Three pieces that will govern how to implement the system :&amp;nbsp;&lt;/b&gt;&lt;/font&gt;" style="text;html=1;align=center;verticalAlign=middle;resizable=0;points=[];autosize=1;strokeColor=none;fillColor=none;" vertex="1" parent="1">
          <mxGeometry x="-15" y="820" width="600" height="40" as="geometry" />
        </mxCell>
        <mxCell id="76KeCXoVacff3B7VgmdV-24" style="edgeStyle=orthogonalEdgeStyle;rounded=0;orthogonalLoop=1;jettySize=auto;html=1;exitX=1;exitY=0.5;exitDx=0;exitDy=0;entryX=0;entryY=0.5;entryDx=0;entryDy=0;" edge="1" parent="1" source="76KeCXoVacff3B7VgmdV-21" target="76KeCXoVacff3B7VgmdV-22">
          <mxGeometry relative="1" as="geometry" />
        </mxCell>
        <mxCell id="76KeCXoVacff3B7VgmdV-21" value="&lt;b&gt;Exposure Components(&lt;font color=&quot;#990000&quot;&gt;these ones need to acces your system&lt;/font&gt;)&amp;nbsp;&lt;/b&gt;&lt;div&gt;&lt;b&gt;&lt;br&gt;&lt;/b&gt;&lt;/div&gt;&lt;div&gt;&lt;b&gt;- Sdk, libraries, APIs&lt;/b&gt;&lt;/div&gt;" style="whiteSpace=wrap;html=1;aspect=fixed;" vertex="1" parent="1">
          <mxGeometry x="85" y="900" width="340" height="340" as="geometry" />
        </mxCell>
        <mxCell id="76KeCXoVacff3B7VgmdV-22" value="&lt;b&gt;Operational Components(&lt;font color=&quot;#990000&quot;&gt;basically core business logic&lt;/font&gt;)&lt;/b&gt;&lt;div&gt;&lt;b&gt;&lt;br&gt;&lt;/b&gt;&lt;/div&gt;&lt;div&gt;&lt;b&gt;- Runs the validation/ business rules&lt;/b&gt;&lt;/div&gt;&lt;div&gt;&lt;b&gt;Get the data and route the data.&lt;/b&gt;&lt;/div&gt;" style="whiteSpace=wrap;html=1;aspect=fixed;" vertex="1" parent="1">
          <mxGeometry x="545" y="900" width="340" height="340" as="geometry" />
        </mxCell>
        <mxCell id="76KeCXoVacff3B7VgmdV-23" value="&lt;b&gt;Integration Components&lt;/b&gt;" style="whiteSpace=wrap;html=1;aspect=fixed;" vertex="1" parent="1">
          <mxGeometry x="1030" y="900" width="340" height="340" as="geometry" />
        </mxCell>
        <mxCell id="76KeCXoVacff3B7VgmdV-25" value="&lt;b&gt;Day 1(What you need to do?)&lt;br&gt;&lt;br&gt;&lt;br&gt;- What are your models ? (Students, systems, courses etc.)(how integrate each other ?)&lt;/b&gt;" style="text;html=1;align=center;verticalAlign=middle;resizable=0;points=[];autosize=1;strokeColor=none;fillColor=none;" vertex="1" parent="1">
          <mxGeometry x="1300" y="470" width="520" height="70" as="geometry" />
        </mxCell>
      </root>
    </mxGraphModel>
  </diagram>
  <diagram id="mvvr1OO8QDi-bJedsgmo" name="Defining the Important Components of System">
    <mxGraphModel dx="3955" dy="969" grid="1" gridSize="10" guides="1" tooltips="1" connect="1" arrows="1" fold="1" page="1" pageScale="1" pageWidth="850" pageHeight="1100" math="0" shadow="0">
      <root>
        <mxCell id="0" />
        <mxCell id="1" parent="0" />
        <mxCell id="XmwTeO3ALNSOVhCkLqTh-1" style="edgeStyle=orthogonalEdgeStyle;rounded=0;orthogonalLoop=1;jettySize=auto;html=1;exitX=1;exitY=0.5;exitDx=0;exitDy=0;entryX=0;entryY=0.5;entryDx=0;entryDy=0;" parent="1" source="XmwTeO3ALNSOVhCkLqTh-3" target="XmwTeO3ALNSOVhCkLqTh-4" edge="1">
          <mxGeometry relative="1" as="geometry" />
        </mxCell>
        <mxCell id="XmwTeO3ALNSOVhCkLqTh-2" value="register" style="edgeLabel;html=1;align=center;verticalAlign=middle;resizable=0;points=[];" parent="XmwTeO3ALNSOVhCkLqTh-1" vertex="1" connectable="0">
          <mxGeometry y="1" relative="1" as="geometry">
            <mxPoint as="offset" />
          </mxGeometry>
        </mxCell>
        <mxCell id="XmwTeO3ALNSOVhCkLqTh-3" value="Student" style="whiteSpace=wrap;html=1;" parent="1" vertex="1">
          <mxGeometry x="110" y="250" width="120" height="60" as="geometry" />
        </mxCell>
        <mxCell id="XmwTeO3ALNSOVhCkLqTh-4" value="School&lt;div&gt;System&lt;/div&gt;" style="whiteSpace=wrap;html=1;" parent="1" vertex="1">
          <mxGeometry x="320" y="250" width="120" height="60" as="geometry" />
        </mxCell>
        <mxCell id="nO8JlUCkA8cUJobfFyDJ-1" value="&lt;font style=&quot;font-size: 20px;&quot;&gt;&lt;b&gt;Visualize/Objectify/Concrete Requirements :&amp;nbsp;&lt;/b&gt;&lt;/font&gt;" style="text;html=1;align=center;verticalAlign=middle;resizable=0;points=[];autosize=1;strokeColor=none;fillColor=none;" parent="1" vertex="1">
          <mxGeometry x="-130" y="160" width="450" height="40" as="geometry" />
        </mxCell>
        <mxCell id="3t47jFb8_ElOIQ5WOwDs-1" value="&lt;b&gt;&lt;font style=&quot;font-size: 20px;&quot;&gt;Define the below compoonets for above system&amp;nbsp; :&amp;nbsp;&lt;/font&gt;&lt;/b&gt;" style="text;html=1;align=center;verticalAlign=middle;resizable=0;points=[];autosize=1;strokeColor=none;fillColor=none;" parent="1" vertex="1">
          <mxGeometry x="-160" y="430" width="500" height="40" as="geometry" />
        </mxCell>
        <mxCell id="3t47jFb8_ElOIQ5WOwDs-2" value="&lt;b&gt;Exposure Components(&lt;font color=&quot;#990000&quot;&gt;these ones need to acces your system&lt;/font&gt;)&amp;nbsp;&lt;/b&gt;&lt;div&gt;&lt;b&gt;&lt;br&gt;&lt;/b&gt;&lt;/div&gt;&lt;div&gt;&lt;b&gt;- Sdk, libraries, APIs, UI&lt;/b&gt;&lt;/div&gt;" style="whiteSpace=wrap;html=1;aspect=fixed;" parent="1" vertex="1">
          <mxGeometry x="-390" y="540" width="340" height="340" as="geometry" />
        </mxCell>
        <mxCell id="3t47jFb8_ElOIQ5WOwDs-3" value="&lt;b&gt;Operational Components(&lt;font color=&quot;#990000&quot;&gt;basically core business logic&lt;/font&gt;)&lt;/b&gt;&lt;div&gt;&lt;b&gt;&lt;br&gt;&lt;/b&gt;&lt;/div&gt;&lt;div&gt;&lt;b&gt;- Runs the validation/ business rules&lt;/b&gt;&lt;/div&gt;&lt;div&gt;&lt;b&gt;Get the data and route the data.&lt;/b&gt;&lt;/div&gt;" style="whiteSpace=wrap;html=1;aspect=fixed;" parent="1" vertex="1">
          <mxGeometry x="70" y="540" width="340" height="340" as="geometry" />
        </mxCell>
        <mxCell id="3t47jFb8_ElOIQ5WOwDs-4" value="&lt;b&gt;Integration Components&lt;/b&gt;" style="whiteSpace=wrap;html=1;aspect=fixed;" parent="1" vertex="1">
          <mxGeometry x="555" y="540" width="340" height="340" as="geometry" />
        </mxCell>
        <mxCell id="3t47jFb8_ElOIQ5WOwDs-21" style="edgeStyle=orthogonalEdgeStyle;rounded=0;orthogonalLoop=1;jettySize=auto;html=1;exitX=0.25;exitY=1;exitDx=0;exitDy=0;entryX=0.5;entryY=0;entryDx=0;entryDy=0;" parent="1" source="3t47jFb8_ElOIQ5WOwDs-5" target="3t47jFb8_ElOIQ5WOwDs-17" edge="1">
          <mxGeometry relative="1" as="geometry" />
        </mxCell>
        <mxCell id="3t47jFb8_ElOIQ5WOwDs-22" style="edgeStyle=orthogonalEdgeStyle;rounded=0;orthogonalLoop=1;jettySize=auto;html=1;exitX=0.5;exitY=1;exitDx=0;exitDy=0;entryX=0.5;entryY=0;entryDx=0;entryDy=0;" parent="1" source="3t47jFb8_ElOIQ5WOwDs-5" target="3t47jFb8_ElOIQ5WOwDs-19" edge="1">
          <mxGeometry relative="1" as="geometry" />
        </mxCell>
        <mxCell id="3t47jFb8_ElOIQ5WOwDs-23" style="edgeStyle=orthogonalEdgeStyle;rounded=0;orthogonalLoop=1;jettySize=auto;html=1;exitX=0.75;exitY=1;exitDx=0;exitDy=0;entryX=0.5;entryY=0;entryDx=0;entryDy=0;" parent="1" source="3t47jFb8_ElOIQ5WOwDs-5" target="3t47jFb8_ElOIQ5WOwDs-20" edge="1">
          <mxGeometry relative="1" as="geometry" />
        </mxCell>
        <mxCell id="3t47jFb8_ElOIQ5WOwDs-5" value="&lt;b&gt;Exposure Components(&lt;font color=&quot;#990000&quot;&gt;these ones need to acces your system&lt;/font&gt;)&amp;nbsp;&lt;/b&gt;&lt;div&gt;&lt;b&gt;&lt;br&gt;&lt;/b&gt;&lt;/div&gt;&lt;div&gt;&lt;b&gt;- Sdk, libraries, APIs, UI&lt;/b&gt;&lt;/div&gt;" style="whiteSpace=wrap;html=1;aspect=fixed;" parent="1" vertex="1">
          <mxGeometry x="-40" y="1090" width="340" height="340" as="geometry" />
        </mxCell>
        <mxCell id="3t47jFb8_ElOIQ5WOwDs-6" value="&lt;b&gt;&lt;font style=&quot;font-size: 20px;&quot;&gt;For the first one&amp;nbsp; :&amp;nbsp;&lt;/font&gt;&lt;/b&gt;" style="text;html=1;align=center;verticalAlign=middle;resizable=0;points=[];autosize=1;strokeColor=none;fillColor=none;" parent="1" vertex="1">
          <mxGeometry x="-410" y="1033" width="200" height="40" as="geometry" />
        </mxCell>
        <mxCell id="3t47jFb8_ElOIQ5WOwDs-12" style="edgeStyle=orthogonalEdgeStyle;rounded=0;orthogonalLoop=1;jettySize=auto;html=1;exitX=1;exitY=0.5;exitDx=0;exitDy=0;entryX=0;entryY=0.5;entryDx=0;entryDy=0;" parent="1" source="3t47jFb8_ElOIQ5WOwDs-14" target="3t47jFb8_ElOIQ5WOwDs-15" edge="1">
          <mxGeometry relative="1" as="geometry" />
        </mxCell>
        <mxCell id="3t47jFb8_ElOIQ5WOwDs-13" value="register" style="edgeLabel;html=1;align=center;verticalAlign=middle;resizable=0;points=[];" parent="3t47jFb8_ElOIQ5WOwDs-12" vertex="1" connectable="0">
          <mxGeometry y="1" relative="1" as="geometry">
            <mxPoint as="offset" />
          </mxGeometry>
        </mxCell>
        <mxCell id="3t47jFb8_ElOIQ5WOwDs-14" value="Student" style="whiteSpace=wrap;html=1;" parent="1" vertex="1">
          <mxGeometry x="-540" y="1270" width="120" height="60" as="geometry" />
        </mxCell>
        <mxCell id="3t47jFb8_ElOIQ5WOwDs-15" value="School&lt;div&gt;System&lt;/div&gt;" style="whiteSpace=wrap;html=1;" parent="1" vertex="1">
          <mxGeometry x="-330" y="1270" width="120" height="60" as="geometry" />
        </mxCell>
        <mxCell id="3t47jFb8_ElOIQ5WOwDs-17" value="Login/Registration Page" style="rhombus;whiteSpace=wrap;html=1;" parent="1" vertex="1">
          <mxGeometry x="-275" y="1690" width="230" height="210" as="geometry" />
        </mxCell>
        <mxCell id="3t47jFb8_ElOIQ5WOwDs-19" value="Authorization/Validation" style="rhombus;whiteSpace=wrap;html=1;" parent="1" vertex="1">
          <mxGeometry x="15" y="1690" width="230" height="210" as="geometry" />
        </mxCell>
        <mxCell id="3t47jFb8_ElOIQ5WOwDs-20" value="AAD (Student System)" style="rhombus;whiteSpace=wrap;html=1;" parent="1" vertex="1">
          <mxGeometry x="355" y="1690" width="230" height="210" as="geometry" />
        </mxCell>
        <mxCell id="3t47jFb8_ElOIQ5WOwDs-25" value="" style="shape=flexArrow;endArrow=classic;html=1;rounded=0;exitX=1;exitY=0.5;exitDx=0;exitDy=0;" parent="1" source="3t47jFb8_ElOIQ5WOwDs-15" edge="1">
          <mxGeometry width="50" height="50" relative="1" as="geometry">
            <mxPoint x="-200" y="1400" as="sourcePoint" />
            <mxPoint x="-60" y="1290" as="targetPoint" />
          </mxGeometry>
        </mxCell>
        <mxCell id="3t47jFb8_ElOIQ5WOwDs-26" value="" style="shape=flexArrow;endArrow=classic;html=1;rounded=0;exitX=0.5;exitY=1;exitDx=0;exitDy=0;" parent="1" source="3t47jFb8_ElOIQ5WOwDs-17" edge="1">
          <mxGeometry width="50" height="50" relative="1" as="geometry">
            <mxPoint x="-130" y="1940" as="sourcePoint" />
            <mxPoint x="-70" y="2120" as="targetPoint" />
          </mxGeometry>
        </mxCell>
        <mxCell id="3t47jFb8_ElOIQ5WOwDs-30" style="edgeStyle=orthogonalEdgeStyle;rounded=0;orthogonalLoop=1;jettySize=auto;html=1;exitX=1;exitY=0.5;exitDx=0;exitDy=0;entryX=0;entryY=0.5;entryDx=0;entryDy=0;" parent="1" source="3t47jFb8_ElOIQ5WOwDs-27" target="3t47jFb8_ElOIQ5WOwDs-28" edge="1">
          <mxGeometry relative="1" as="geometry" />
        </mxCell>
        <mxCell id="3t47jFb8_ElOIQ5WOwDs-27" value="Web UI/Mobile&amp;nbsp;" style="rounded=0;whiteSpace=wrap;html=1;" parent="1" vertex="1">
          <mxGeometry x="-70" y="2130" width="230" height="150" as="geometry" />
        </mxCell>
        <mxCell id="3t47jFb8_ElOIQ5WOwDs-31" style="edgeStyle=orthogonalEdgeStyle;rounded=0;orthogonalLoop=1;jettySize=auto;html=1;exitX=1;exitY=0.5;exitDx=0;exitDy=0;entryX=0;entryY=0.5;entryDx=0;entryDy=0;" parent="1" source="3t47jFb8_ElOIQ5WOwDs-28" target="3t47jFb8_ElOIQ5WOwDs-29" edge="1">
          <mxGeometry relative="1" as="geometry" />
        </mxCell>
        <mxCell id="3t47jFb8_ElOIQ5WOwDs-28" value="API" style="rounded=0;whiteSpace=wrap;html=1;" parent="1" vertex="1">
          <mxGeometry x="230" y="2130" width="230" height="150" as="geometry" />
        </mxCell>
        <mxCell id="3t47jFb8_ElOIQ5WOwDs-29" value="Resources(Node)" style="rounded=0;whiteSpace=wrap;html=1;" parent="1" vertex="1">
          <mxGeometry x="530" y="2130" width="230" height="150" as="geometry" />
        </mxCell>
        <mxCell id="3t47jFb8_ElOIQ5WOwDs-32" value="&lt;b&gt;&lt;font style=&quot;font-size: 20px;&quot;&gt;Key-Notes :&amp;nbsp;&lt;/font&gt;&lt;/b&gt;&lt;div&gt;&lt;b&gt;&lt;font style=&quot;font-size: 20px;&quot;&gt;&lt;br&gt;&lt;/font&gt;&lt;/b&gt;&lt;/div&gt;&lt;div&gt;&lt;font style=&quot;font-size: 20px;&quot;&gt;- All part of your code would be pluggable, nowadays you can use SQL but at one point, you can switch it with new technology.&lt;/font&gt;&lt;/div&gt;" style="text;html=1;align=center;verticalAlign=middle;resizable=0;points=[];autosize=1;strokeColor=none;fillColor=none;" parent="1" vertex="1">
          <mxGeometry x="-745" y="2460" width="1140" height="90" as="geometry" />
        </mxCell>
        <mxCell id="3t47jFb8_ElOIQ5WOwDs-36" style="edgeStyle=orthogonalEdgeStyle;rounded=0;orthogonalLoop=1;jettySize=auto;html=1;exitX=1;exitY=0.5;exitDx=0;exitDy=0;" parent="1" source="3t47jFb8_ElOIQ5WOwDs-34" target="3t47jFb8_ElOIQ5WOwDs-35" edge="1">
          <mxGeometry relative="1" as="geometry" />
        </mxCell>
        <mxCell id="3t47jFb8_ElOIQ5WOwDs-34" value="Storage Broker" style="rounded=0;whiteSpace=wrap;html=1;" parent="1" vertex="1">
          <mxGeometry x="-165" y="2720" width="120" height="60" as="geometry" />
        </mxCell>
        <mxCell id="3t47jFb8_ElOIQ5WOwDs-35" value="" style="shape=cylinder3;whiteSpace=wrap;html=1;boundedLbl=1;backgroundOutline=1;size=15;" parent="1" vertex="1">
          <mxGeometry x="150" y="2710" width="60" height="80" as="geometry" />
        </mxCell>
        <mxCell id="3t47jFb8_ElOIQ5WOwDs-37" value="Api Broker" style="rounded=0;whiteSpace=wrap;html=1;" parent="1" vertex="1">
          <mxGeometry x="-165" y="2830" width="120" height="60" as="geometry" />
        </mxCell>
        <mxCell id="3t47jFb8_ElOIQ5WOwDs-38" value="AAD(Authen..Authori..)" style="ellipse;shape=cloud;whiteSpace=wrap;html=1;" parent="1" vertex="1">
          <mxGeometry x="82.5" y="2800" width="195" height="120" as="geometry" />
        </mxCell>
        <mxCell id="3t47jFb8_ElOIQ5WOwDs-39" style="edgeStyle=orthogonalEdgeStyle;rounded=0;orthogonalLoop=1;jettySize=auto;html=1;exitX=1;exitY=0.5;exitDx=0;exitDy=0;entryX=0.16;entryY=0.55;entryDx=0;entryDy=0;entryPerimeter=0;" parent="1" source="3t47jFb8_ElOIQ5WOwDs-37" target="3t47jFb8_ElOIQ5WOwDs-38" edge="1">
          <mxGeometry relative="1" as="geometry" />
        </mxCell>
        <mxCell id="3t47jFb8_ElOIQ5WOwDs-45" style="edgeStyle=orthogonalEdgeStyle;rounded=0;orthogonalLoop=1;jettySize=auto;html=1;exitX=0.5;exitY=0;exitDx=0;exitDy=0;entryX=0.5;entryY=1;entryDx=0;entryDy=0;" parent="1" source="3t47jFb8_ElOIQ5WOwDs-40" target="3t47jFb8_ElOIQ5WOwDs-42" edge="1">
          <mxGeometry relative="1" as="geometry" />
        </mxCell>
        <mxCell id="3t47jFb8_ElOIQ5WOwDs-46" value="Make" style="edgeLabel;html=1;align=center;verticalAlign=middle;resizable=0;points=[];" parent="3t47jFb8_ElOIQ5WOwDs-45" vertex="1" connectable="0">
          <mxGeometry y="-2" relative="1" as="geometry">
            <mxPoint as="offset" />
          </mxGeometry>
        </mxCell>
        <mxCell id="3t47jFb8_ElOIQ5WOwDs-40" value="Student Service(Simple Class)" style="rounded=0;whiteSpace=wrap;html=1;" parent="1" vertex="1">
          <mxGeometry x="-330" y="2720" width="120" height="60" as="geometry" />
        </mxCell>
        <mxCell id="3t47jFb8_ElOIQ5WOwDs-48" style="edgeStyle=orthogonalEdgeStyle;rounded=0;orthogonalLoop=1;jettySize=auto;html=1;exitX=0.5;exitY=1;exitDx=0;exitDy=0;entryX=0.5;entryY=0;entryDx=0;entryDy=0;" parent="1" source="3t47jFb8_ElOIQ5WOwDs-41" target="3t47jFb8_ElOIQ5WOwDs-47" edge="1">
          <mxGeometry relative="1" as="geometry" />
        </mxCell>
        <mxCell id="3t47jFb8_ElOIQ5WOwDs-49" value="Validate" style="edgeLabel;html=1;align=center;verticalAlign=middle;resizable=0;points=[];" parent="3t47jFb8_ElOIQ5WOwDs-48" vertex="1" connectable="0">
          <mxGeometry x="0.125" y="1" relative="1" as="geometry">
            <mxPoint as="offset" />
          </mxGeometry>
        </mxCell>
        <mxCell id="3t47jFb8_ElOIQ5WOwDs-41" value="Authorization Service" style="rounded=0;whiteSpace=wrap;html=1;" parent="1" vertex="1">
          <mxGeometry x="-330" y="2830" width="120" height="60" as="geometry" />
        </mxCell>
        <mxCell id="3t47jFb8_ElOIQ5WOwDs-42" value="Validation of Object/Model" style="ellipse;whiteSpace=wrap;html=1;" parent="1" vertex="1">
          <mxGeometry x="-310" y="2580" width="80" height="80" as="geometry" />
        </mxCell>
        <mxCell id="3t47jFb8_ElOIQ5WOwDs-47" value="Token" style="ellipse;whiteSpace=wrap;html=1;" parent="1" vertex="1">
          <mxGeometry x="-310" y="2970" width="80" height="80" as="geometry" />
        </mxCell>
        <mxCell id="3t47jFb8_ElOIQ5WOwDs-51" style="edgeStyle=orthogonalEdgeStyle;rounded=0;orthogonalLoop=1;jettySize=auto;html=1;exitX=1;exitY=0.5;exitDx=0;exitDy=0;entryX=0;entryY=0.5;entryDx=0;entryDy=0;" parent="1" source="3t47jFb8_ElOIQ5WOwDs-50" target="3t47jFb8_ElOIQ5WOwDs-40" edge="1">
          <mxGeometry relative="1" as="geometry" />
        </mxCell>
        <mxCell id="3t47jFb8_ElOIQ5WOwDs-52" style="edgeStyle=orthogonalEdgeStyle;rounded=0;orthogonalLoop=1;jettySize=auto;html=1;exitX=1;exitY=0.5;exitDx=0;exitDy=0;entryX=0;entryY=0.5;entryDx=0;entryDy=0;" parent="1" source="3t47jFb8_ElOIQ5WOwDs-50" target="3t47jFb8_ElOIQ5WOwDs-41" edge="1">
          <mxGeometry relative="1" as="geometry" />
        </mxCell>
        <mxCell id="3t47jFb8_ElOIQ5WOwDs-54" style="edgeStyle=orthogonalEdgeStyle;rounded=0;orthogonalLoop=1;jettySize=auto;html=1;exitX=0.5;exitY=1;exitDx=0;exitDy=0;entryX=0.5;entryY=0;entryDx=0;entryDy=0;" parent="1" source="3t47jFb8_ElOIQ5WOwDs-50" target="3t47jFb8_ElOIQ5WOwDs-53" edge="1">
          <mxGeometry relative="1" as="geometry" />
        </mxCell>
        <mxCell id="3t47jFb8_ElOIQ5WOwDs-55" value="Validate &amp;amp; Register" style="edgeLabel;html=1;align=center;verticalAlign=middle;resizable=0;points=[];" parent="3t47jFb8_ElOIQ5WOwDs-54" vertex="1" connectable="0">
          <mxGeometry x="-0.0444" y="3" relative="1" as="geometry">
            <mxPoint as="offset" />
          </mxGeometry>
        </mxCell>
        <mxCell id="3t47jFb8_ElOIQ5WOwDs-50" value="Student Registration Orchestration Service" style="rounded=1;whiteSpace=wrap;html=1;" parent="1" vertex="1">
          <mxGeometry x="-610" y="2770" width="150" height="60" as="geometry" />
        </mxCell>
        <mxCell id="3t47jFb8_ElOIQ5WOwDs-53" value="Student" style="ellipse;whiteSpace=wrap;html=1;" parent="1" vertex="1">
          <mxGeometry x="-575" y="2920" width="80" height="80" as="geometry" />
        </mxCell>
        <mxCell id="3t47jFb8_ElOIQ5WOwDs-57" style="edgeStyle=orthogonalEdgeStyle;rounded=0;orthogonalLoop=1;jettySize=auto;html=1;exitX=1;exitY=0.5;exitDx=0;exitDy=0;entryX=0;entryY=0.5;entryDx=0;entryDy=0;" parent="1" source="3t47jFb8_ElOIQ5WOwDs-56" target="3t47jFb8_ElOIQ5WOwDs-50" edge="1">
          <mxGeometry relative="1" as="geometry" />
        </mxCell>
        <mxCell id="3t47jFb8_ElOIQ5WOwDs-56" value="Student Registration Controller(APIs)" style="rounded=1;whiteSpace=wrap;html=1;" parent="1" vertex="1">
          <mxGeometry x="-800" y="2770" width="120" height="60" as="geometry" />
        </mxCell>
        <mxCell id="3t47jFb8_ElOIQ5WOwDs-59" style="edgeStyle=orthogonalEdgeStyle;rounded=0;orthogonalLoop=1;jettySize=auto;html=1;exitX=0.96;exitY=0.7;exitDx=0;exitDy=0;exitPerimeter=0;" parent="1" source="3t47jFb8_ElOIQ5WOwDs-58" target="3t47jFb8_ElOIQ5WOwDs-56" edge="1">
          <mxGeometry relative="1" as="geometry" />
        </mxCell>
        <mxCell id="3t47jFb8_ElOIQ5WOwDs-58" value="" style="ellipse;shape=cloud;whiteSpace=wrap;html=1;" parent="1" vertex="1">
          <mxGeometry x="-1060" y="2770" width="120" height="80" as="geometry" />
        </mxCell>
        <mxCell id="3t47jFb8_ElOIQ5WOwDs-60" value="Student Registration API Broker" style="rounded=1;whiteSpace=wrap;html=1;" parent="1" vertex="1">
          <mxGeometry x="-1340" y="2780" width="120" height="60" as="geometry" />
        </mxCell>
        <mxCell id="3t47jFb8_ElOIQ5WOwDs-65" style="edgeStyle=orthogonalEdgeStyle;rounded=0;orthogonalLoop=1;jettySize=auto;html=1;exitX=0.5;exitY=1;exitDx=0;exitDy=0;entryX=0.5;entryY=0;entryDx=0;entryDy=0;" parent="1" source="3t47jFb8_ElOIQ5WOwDs-63" target="3t47jFb8_ElOIQ5WOwDs-64" edge="1">
          <mxGeometry relative="1" as="geometry" />
        </mxCell>
        <mxCell id="3t47jFb8_ElOIQ5WOwDs-66" value="Structurally Validate" style="edgeLabel;html=1;align=center;verticalAlign=middle;resizable=0;points=[];" parent="3t47jFb8_ElOIQ5WOwDs-65" vertex="1" connectable="0">
          <mxGeometry relative="1" as="geometry">
            <mxPoint as="offset" />
          </mxGeometry>
        </mxCell>
        <mxCell id="3t47jFb8_ElOIQ5WOwDs-69" style="edgeStyle=orthogonalEdgeStyle;rounded=0;orthogonalLoop=1;jettySize=auto;html=1;exitX=1;exitY=0.5;exitDx=0;exitDy=0;entryX=0;entryY=0.5;entryDx=0;entryDy=0;" parent="1" source="3t47jFb8_ElOIQ5WOwDs-63" target="3t47jFb8_ElOIQ5WOwDs-60" edge="1">
          <mxGeometry relative="1" as="geometry" />
        </mxCell>
        <mxCell id="3t47jFb8_ElOIQ5WOwDs-63" value="Student Registration Service" style="rounded=1;whiteSpace=wrap;html=1;" parent="1" vertex="1">
          <mxGeometry x="-1570" y="2780" width="120" height="60" as="geometry" />
        </mxCell>
        <mxCell id="3t47jFb8_ElOIQ5WOwDs-64" value="Request" style="ellipse;whiteSpace=wrap;html=1;" parent="1" vertex="1">
          <mxGeometry x="-1550" y="2900" width="80" height="80" as="geometry" />
        </mxCell>
        <mxCell id="3t47jFb8_ElOIQ5WOwDs-68" style="edgeStyle=orthogonalEdgeStyle;rounded=0;orthogonalLoop=1;jettySize=auto;html=1;exitX=1;exitY=0.5;exitDx=0;exitDy=0;entryX=0;entryY=0.5;entryDx=0;entryDy=0;" parent="1" source="3t47jFb8_ElOIQ5WOwDs-67" target="3t47jFb8_ElOIQ5WOwDs-63" edge="1">
          <mxGeometry relative="1" as="geometry" />
        </mxCell>
        <mxCell id="3t47jFb8_ElOIQ5WOwDs-67" value="Student Registration View Service" style="rounded=1;whiteSpace=wrap;html=1;" parent="1" vertex="1">
          <mxGeometry x="-1750" y="2780" width="120" height="60" as="geometry" />
        </mxCell>
        <mxCell id="3t47jFb8_ElOIQ5WOwDs-70" style="edgeStyle=orthogonalEdgeStyle;rounded=0;orthogonalLoop=1;jettySize=auto;html=1;exitX=1;exitY=0.5;exitDx=0;exitDy=0;entryX=0.16;entryY=0.55;entryDx=0;entryDy=0;entryPerimeter=0;" parent="1" source="3t47jFb8_ElOIQ5WOwDs-60" target="3t47jFb8_ElOIQ5WOwDs-58" edge="1">
          <mxGeometry relative="1" as="geometry" />
        </mxCell>
        <mxCell id="3t47jFb8_ElOIQ5WOwDs-77" style="edgeStyle=orthogonalEdgeStyle;rounded=0;orthogonalLoop=1;jettySize=auto;html=1;exitX=0.5;exitY=1;exitDx=0;exitDy=0;entryX=0.5;entryY=0;entryDx=0;entryDy=0;" parent="1" source="3t47jFb8_ElOIQ5WOwDs-71" target="3t47jFb8_ElOIQ5WOwDs-72" edge="1">
          <mxGeometry relative="1" as="geometry" />
        </mxCell>
        <mxCell id="3t47jFb8_ElOIQ5WOwDs-78" style="edgeStyle=orthogonalEdgeStyle;rounded=0;orthogonalLoop=1;jettySize=auto;html=1;exitX=0.5;exitY=1;exitDx=0;exitDy=0;entryX=0.5;entryY=0;entryDx=0;entryDy=0;" parent="1" source="3t47jFb8_ElOIQ5WOwDs-71" target="3t47jFb8_ElOIQ5WOwDs-73" edge="1">
          <mxGeometry relative="1" as="geometry" />
        </mxCell>
        <mxCell id="3t47jFb8_ElOIQ5WOwDs-79" style="edgeStyle=orthogonalEdgeStyle;rounded=0;orthogonalLoop=1;jettySize=auto;html=1;exitX=0.5;exitY=1;exitDx=0;exitDy=0;entryX=0.5;entryY=0;entryDx=0;entryDy=0;" parent="1" source="3t47jFb8_ElOIQ5WOwDs-71" target="3t47jFb8_ElOIQ5WOwDs-74" edge="1">
          <mxGeometry relative="1" as="geometry" />
        </mxCell>
        <mxCell id="3t47jFb8_ElOIQ5WOwDs-71" value="Student Registration Component" style="whiteSpace=wrap;html=1;aspect=fixed;" parent="1" vertex="1">
          <mxGeometry x="-2140" y="2690" width="290" height="290" as="geometry" />
        </mxCell>
        <mxCell id="3t47jFb8_ElOIQ5WOwDs-72" value="Label Base" style="whiteSpace=wrap;html=1;aspect=fixed;" parent="1" vertex="1">
          <mxGeometry x="-2140" y="3050" width="80" height="80" as="geometry" />
        </mxCell>
        <mxCell id="3t47jFb8_ElOIQ5WOwDs-73" value="Button Base" style="whiteSpace=wrap;html=1;aspect=fixed;" parent="1" vertex="1">
          <mxGeometry x="-2035" y="3050" width="80" height="80" as="geometry" />
        </mxCell>
        <mxCell id="3t47jFb8_ElOIQ5WOwDs-74" value="TextBox Base" style="whiteSpace=wrap;html=1;aspect=fixed;" parent="1" vertex="1">
          <mxGeometry x="-1930" y="3050" width="80" height="80" as="geometry" />
        </mxCell>
        <mxCell id="3t47jFb8_ElOIQ5WOwDs-76" style="edgeStyle=orthogonalEdgeStyle;rounded=0;orthogonalLoop=1;jettySize=auto;html=1;exitX=0.5;exitY=1;exitDx=0;exitDy=0;entryX=0.5;entryY=0;entryDx=0;entryDy=0;" parent="1" source="3t47jFb8_ElOIQ5WOwDs-75" target="3t47jFb8_ElOIQ5WOwDs-71" edge="1">
          <mxGeometry relative="1" as="geometry" />
        </mxCell>
        <mxCell id="3t47jFb8_ElOIQ5WOwDs-75" value="Page" style="whiteSpace=wrap;html=1;aspect=fixed;" parent="1" vertex="1">
          <mxGeometry x="-2140" y="2330" width="290" height="290" as="geometry" />
        </mxCell>
        <mxCell id="8CLcIwSxohdgh3D3E606-1" value="" style="endArrow=classic;html=1;rounded=0;" edge="1" parent="1">
          <mxGeometry width="50" height="50" relative="1" as="geometry">
            <mxPoint x="-40" y="2800" as="sourcePoint" />
            <mxPoint x="190" y="3030" as="targetPoint" />
          </mxGeometry>
        </mxCell>
        <mxCell id="8CLcIwSxohdgh3D3E606-2" value="" style="endArrow=classic;html=1;rounded=0;" edge="1" parent="1">
          <mxGeometry width="50" height="50" relative="1" as="geometry">
            <mxPoint x="-40" y="2890" as="sourcePoint" />
            <mxPoint x="110" y="3050" as="targetPoint" />
          </mxGeometry>
        </mxCell>
        <mxCell id="8CLcIwSxohdgh3D3E606-3" value="&lt;b&gt;What is Broker ?&amp;nbsp;&amp;nbsp;&lt;/b&gt;&lt;div&gt;&lt;b&gt;&lt;br&gt;&lt;/b&gt;&lt;/div&gt;&lt;div&gt;&lt;b&gt;&lt;br&gt;&lt;/b&gt;&lt;/div&gt;&lt;div&gt;&lt;b&gt;- generic definition/sense&lt;/b&gt;&lt;/div&gt;&lt;div&gt;&lt;b&gt;- between core business logic and outside of world&lt;/b&gt;&lt;/div&gt;&lt;div&gt;&lt;b&gt;- very thin layer = abstraction layer between core logic and outside.&lt;/b&gt;&lt;/div&gt;&lt;div&gt;&lt;b&gt;it&#39;s liasion&lt;/b&gt;&lt;/div&gt;" style="text;html=1;align=center;verticalAlign=middle;resizable=0;points=[];autosize=1;strokeColor=none;fillColor=none;" vertex="1" parent="1">
          <mxGeometry x="-25" y="3038" width="410" height="110" as="geometry" />
        </mxCell>
        <mxCell id="8CLcIwSxohdgh3D3E606-6" style="edgeStyle=orthogonalEdgeStyle;rounded=0;orthogonalLoop=1;jettySize=auto;html=1;exitX=0.5;exitY=1;exitDx=0;exitDy=0;entryX=0.5;entryY=0;entryDx=0;entryDy=0;" edge="1" parent="1" source="8CLcIwSxohdgh3D3E606-4" target="8CLcIwSxohdgh3D3E606-5">
          <mxGeometry relative="1" as="geometry" />
        </mxCell>
        <mxCell id="8CLcIwSxohdgh3D3E606-7" value="at some point, core logic need to store some data but i don&#39;t want to tied up directly to sql database ..&lt;div&gt;why because technology changes all the time.&lt;/div&gt;" style="edgeLabel;html=1;align=center;verticalAlign=middle;resizable=0;points=[];" vertex="1" connectable="0" parent="8CLcIwSxohdgh3D3E606-6">
          <mxGeometry x="-0.1" y="-3" relative="1" as="geometry">
            <mxPoint as="offset" />
          </mxGeometry>
        </mxCell>
        <mxCell id="8CLcIwSxohdgh3D3E606-4" value="Core Logic(Business Rules)" style="rounded=0;whiteSpace=wrap;html=1;" vertex="1" parent="1">
          <mxGeometry x="110" y="3160" width="120" height="60" as="geometry" />
        </mxCell>
        <mxCell id="8CLcIwSxohdgh3D3E606-5" value="" style="shape=datastore;whiteSpace=wrap;html=1;" vertex="1" parent="1">
          <mxGeometry x="140" y="3380" width="60" height="60" as="geometry" />
        </mxCell>
        <mxCell id="8CLcIwSxohdgh3D3E606-10" style="edgeStyle=orthogonalEdgeStyle;rounded=0;orthogonalLoop=1;jettySize=auto;html=1;exitX=1;exitY=0.5;exitDx=0;exitDy=0;entryX=0;entryY=0.5;entryDx=0;entryDy=0;" edge="1" parent="1" source="8CLcIwSxohdgh3D3E606-8" target="8CLcIwSxohdgh3D3E606-9">
          <mxGeometry relative="1" as="geometry" />
        </mxCell>
        <mxCell id="8CLcIwSxohdgh3D3E606-8" value="Core Logic(Business Rules)" style="rounded=0;whiteSpace=wrap;html=1;" vertex="1" parent="1">
          <mxGeometry x="490" y="3130" width="225" height="260" as="geometry" />
        </mxCell>
        <mxCell id="8CLcIwSxohdgh3D3E606-12" style="edgeStyle=orthogonalEdgeStyle;rounded=0;orthogonalLoop=1;jettySize=auto;html=1;exitX=1;exitY=0.5;exitDx=0;exitDy=0;entryX=0;entryY=0.5;entryDx=0;entryDy=0;" edge="1" parent="1" source="8CLcIwSxohdgh3D3E606-9" target="8CLcIwSxohdgh3D3E606-11">
          <mxGeometry relative="1" as="geometry" />
        </mxCell>
        <mxCell id="8CLcIwSxohdgh3D3E606-9" value="Broker&lt;div&gt;Simple Interface&lt;/div&gt;" style="rounded=0;whiteSpace=wrap;html=1;" vertex="1" parent="1">
          <mxGeometry x="775" y="3130" width="35" height="260" as="geometry" />
        </mxCell>
        <mxCell id="8CLcIwSxohdgh3D3E606-11" value="" style="shape=datastore;whiteSpace=wrap;html=1;" vertex="1" parent="1">
          <mxGeometry x="930" y="3220" width="60" height="60" as="geometry" />
        </mxCell>
        <mxCell id="8CLcIwSxohdgh3D3E606-13" value="" style="shape=datastore;whiteSpace=wrap;html=1;" vertex="1" parent="1">
          <mxGeometry x="930" y="3120" width="60" height="60" as="geometry" />
        </mxCell>
        <mxCell id="8CLcIwSxohdgh3D3E606-14" value="" style="shape=datastore;whiteSpace=wrap;html=1;" vertex="1" parent="1">
          <mxGeometry x="930" y="3330" width="60" height="60" as="geometry" />
        </mxCell>
        <mxCell id="8CLcIwSxohdgh3D3E606-16" value="&lt;b&gt;Real-life example of Interface&amp;nbsp; :&amp;nbsp;&lt;/b&gt;Open Source Project : &lt;b&gt;OtripleS.Portal From hassanhabib&lt;/b&gt;" style="text;html=1;align=center;verticalAlign=middle;resizable=0;points=[];autosize=1;strokeColor=none;fillColor=none;" vertex="1" parent="1">
          <mxGeometry x="475" y="3500" width="520" height="30" as="geometry" />
        </mxCell>
        <mxCell id="8CLcIwSxohdgh3D3E606-17" value="" style="rounded=1;whiteSpace=wrap;html=1;" vertex="1" parent="1">
          <mxGeometry x="-60" y="3650" width="850" height="540" as="geometry" />
        </mxCell>
        <mxCell id="8CLcIwSxohdgh3D3E606-26" style="edgeStyle=orthogonalEdgeStyle;rounded=0;orthogonalLoop=1;jettySize=auto;html=1;exitX=1;exitY=0.5;exitDx=0;exitDy=0;entryX=0;entryY=0.5;entryDx=0;entryDy=0;" edge="1" parent="1" source="8CLcIwSxohdgh3D3E606-18" target="8CLcIwSxohdgh3D3E606-19">
          <mxGeometry relative="1" as="geometry" />
        </mxCell>
        <mxCell id="8CLcIwSxohdgh3D3E606-27" style="edgeStyle=orthogonalEdgeStyle;rounded=0;orthogonalLoop=1;jettySize=auto;html=1;entryX=0;entryY=0.5;entryDx=0;entryDy=0;" edge="1" parent="1" source="8CLcIwSxohdgh3D3E606-18" target="8CLcIwSxohdgh3D3E606-20">
          <mxGeometry relative="1" as="geometry" />
        </mxCell>
        <mxCell id="8CLcIwSxohdgh3D3E606-28" style="edgeStyle=orthogonalEdgeStyle;rounded=0;orthogonalLoop=1;jettySize=auto;html=1;entryX=0;entryY=0.5;entryDx=0;entryDy=0;" edge="1" parent="1" source="8CLcIwSxohdgh3D3E606-18" target="8CLcIwSxohdgh3D3E606-21">
          <mxGeometry relative="1" as="geometry" />
        </mxCell>
        <mxCell id="8CLcIwSxohdgh3D3E606-18" value="Orchestration Microservice" style="ellipse;whiteSpace=wrap;html=1;aspect=fixed;fillColor=#6a00ff;fontColor=#ffffff;strokeColor=#3700CC;" vertex="1" parent="1">
          <mxGeometry x="320" y="3880" width="80" height="80" as="geometry" />
        </mxCell>
        <mxCell id="8CLcIwSxohdgh3D3E606-29" style="edgeStyle=orthogonalEdgeStyle;rounded=0;orthogonalLoop=1;jettySize=auto;html=1;exitX=1;exitY=0.5;exitDx=0;exitDy=0;entryX=0;entryY=0.5;entryDx=0;entryDy=0;" edge="1" parent="1" source="8CLcIwSxohdgh3D3E606-19" target="8CLcIwSxohdgh3D3E606-22">
          <mxGeometry relative="1" as="geometry" />
        </mxCell>
        <mxCell id="8CLcIwSxohdgh3D3E606-19" value="Profile M.S." style="ellipse;whiteSpace=wrap;html=1;aspect=fixed;fillColor=#0050ef;fontColor=#ffffff;strokeColor=#001DBC;" vertex="1" parent="1">
          <mxGeometry x="660" y="3740" width="80" height="80" as="geometry" />
        </mxCell>
        <mxCell id="8CLcIwSxohdgh3D3E606-30" style="edgeStyle=orthogonalEdgeStyle;rounded=0;orthogonalLoop=1;jettySize=auto;html=1;exitX=1;exitY=0.5;exitDx=0;exitDy=0;entryX=0;entryY=0.7;entryDx=0;entryDy=0;" edge="1" parent="1" source="8CLcIwSxohdgh3D3E606-20" target="8CLcIwSxohdgh3D3E606-23">
          <mxGeometry relative="1" as="geometry" />
        </mxCell>
        <mxCell id="8CLcIwSxohdgh3D3E606-20" value="Courses Mic.Serv." style="ellipse;whiteSpace=wrap;html=1;aspect=fixed;fillColor=#0050ef;fontColor=#ffffff;strokeColor=#001DBC;" vertex="1" parent="1">
          <mxGeometry x="660" y="3850" width="80" height="80" as="geometry" />
        </mxCell>
        <mxCell id="8CLcIwSxohdgh3D3E606-21" value="Teacher Mic.Ser." style="ellipse;whiteSpace=wrap;html=1;aspect=fixed;fillColor=#0050ef;fontColor=#ffffff;strokeColor=#001DBC;" vertex="1" parent="1">
          <mxGeometry x="660" y="3970" width="80" height="80" as="geometry" />
        </mxCell>
        <mxCell id="8CLcIwSxohdgh3D3E606-22" value="" style="shape=datastore;whiteSpace=wrap;html=1;" vertex="1" parent="1">
          <mxGeometry x="850" y="3740" width="60" height="60" as="geometry" />
        </mxCell>
        <mxCell id="8CLcIwSxohdgh3D3E606-23" value="" style="shape=datastore;whiteSpace=wrap;html=1;" vertex="1" parent="1">
          <mxGeometry x="850" y="3850" width="60" height="60" as="geometry" />
        </mxCell>
        <mxCell id="8CLcIwSxohdgh3D3E606-24" value="External API" style="ellipse;shape=cloud;whiteSpace=wrap;html=1;" vertex="1" parent="1">
          <mxGeometry x="820" y="3970" width="120" height="80" as="geometry" />
        </mxCell>
        <mxCell id="8CLcIwSxohdgh3D3E606-34" style="edgeStyle=orthogonalEdgeStyle;rounded=0;orthogonalLoop=1;jettySize=auto;html=1;exitX=1;exitY=0.5;exitDx=0;exitDy=0;entryX=0;entryY=0.5;entryDx=0;entryDy=0;" edge="1" parent="1" source="8CLcIwSxohdgh3D3E606-25" target="8CLcIwSxohdgh3D3E606-18">
          <mxGeometry relative="1" as="geometry" />
        </mxCell>
        <mxCell id="8CLcIwSxohdgh3D3E606-25" value="Gatekeeper" style="ellipse;whiteSpace=wrap;html=1;aspect=fixed;fillColor=#60a917;fontColor=#ffffff;strokeColor=#2D7600;" vertex="1" parent="1">
          <mxGeometry x="-100" y="3890" width="80" height="80" as="geometry" />
        </mxCell>
        <mxCell id="8CLcIwSxohdgh3D3E606-31" style="edgeStyle=orthogonalEdgeStyle;rounded=0;orthogonalLoop=1;jettySize=auto;html=1;exitX=1;exitY=0.5;exitDx=0;exitDy=0;entryX=0.16;entryY=0.55;entryDx=0;entryDy=0;entryPerimeter=0;" edge="1" parent="1" source="8CLcIwSxohdgh3D3E606-21" target="8CLcIwSxohdgh3D3E606-24">
          <mxGeometry relative="1" as="geometry" />
        </mxCell>
        <mxCell id="8CLcIwSxohdgh3D3E606-32" value="Gatekeeper doesn&#39;t know anything about inside like what comes from orchestration or something. ZERO TRUST.&lt;div&gt;&lt;br&gt;&lt;/div&gt;" style="text;html=1;align=center;verticalAlign=middle;resizable=0;points=[];autosize=1;strokeColor=none;fillColor=none;" vertex="1" parent="1">
          <mxGeometry x="-190" y="4285" width="620" height="40" as="geometry" />
        </mxCell>
        <mxCell id="8CLcIwSxohdgh3D3E606-33" value="&lt;b&gt;NOTE :&amp;nbsp;&lt;/b&gt;" style="text;html=1;align=center;verticalAlign=middle;resizable=0;points=[];autosize=1;strokeColor=none;fillColor=none;" vertex="1" parent="1">
          <mxGeometry x="5" y="4238" width="70" height="30" as="geometry" />
        </mxCell>
        <mxCell id="8CLcIwSxohdgh3D3E606-38" style="edgeStyle=orthogonalEdgeStyle;rounded=0;orthogonalLoop=1;jettySize=auto;html=1;exitX=1;exitY=0.5;exitDx=0;exitDy=0;entryX=0;entryY=0.5;entryDx=0;entryDy=0;" edge="1" parent="1" source="8CLcIwSxohdgh3D3E606-35" target="8CLcIwSxohdgh3D3E606-36">
          <mxGeometry relative="1" as="geometry" />
        </mxCell>
        <mxCell id="8CLcIwSxohdgh3D3E606-35" value="EXPOSURE" style="rounded=1;whiteSpace=wrap;html=1;fillColor=#60a917;fontColor=#ffffff;strokeColor=#2D7600;" vertex="1" parent="1">
          <mxGeometry x="30" y="3550" width="120" height="60" as="geometry" />
        </mxCell>
        <mxCell id="8CLcIwSxohdgh3D3E606-39" style="edgeStyle=orthogonalEdgeStyle;rounded=0;orthogonalLoop=1;jettySize=auto;html=1;exitX=1;exitY=0.5;exitDx=0;exitDy=0;entryX=0;entryY=0.5;entryDx=0;entryDy=0;" edge="1" parent="1" source="8CLcIwSxohdgh3D3E606-36" target="8CLcIwSxohdgh3D3E606-37">
          <mxGeometry relative="1" as="geometry" />
        </mxCell>
        <mxCell id="8CLcIwSxohdgh3D3E606-36" value="SERVICE" style="rounded=1;whiteSpace=wrap;html=1;fillColor=#6a00ff;fontColor=#ffffff;strokeColor=#3700CC;" vertex="1" parent="1">
          <mxGeometry x="275" y="3550" width="120" height="60" as="geometry" />
        </mxCell>
        <mxCell id="8CLcIwSxohdgh3D3E606-37" value="BROKER" style="rounded=1;whiteSpace=wrap;html=1;fillColor=#0050ef;fontColor=#ffffff;strokeColor=#001DBC;" vertex="1" parent="1">
          <mxGeometry x="540" y="3550" width="120" height="60" as="geometry" />
        </mxCell>
        <mxCell id="8CLcIwSxohdgh3D3E606-40" value="&lt;b&gt;What Gatekeeper Do ?&amp;nbsp;&lt;/b&gt;&lt;div&gt;- Client doesn&#39;t tied up directly to microservices/orchs.&lt;/div&gt;&lt;div&gt;-Abstraction layer that keeps outside world away from being tightly coupled to your internal microservices.&lt;/div&gt;" style="text;html=1;align=center;verticalAlign=middle;resizable=0;points=[];autosize=1;strokeColor=none;fillColor=none;" vertex="1" parent="1">
          <mxGeometry x="-250" y="4313" width="580" height="60" as="geometry" />
        </mxCell>
        <mxCell id="8CLcIwSxohdgh3D3E606-41" value="" style="endArrow=classic;html=1;rounded=0;exitX=0.15;exitY=0.963;exitDx=0;exitDy=0;exitPerimeter=0;" edge="1" parent="1" source="8CLcIwSxohdgh3D3E606-25">
          <mxGeometry width="50" height="50" relative="1" as="geometry">
            <mxPoint x="-210" y="3978" as="sourcePoint" />
            <mxPoint x="-100" y="4260" as="targetPoint" />
          </mxGeometry>
        </mxCell>
        <mxCell id="8CLcIwSxohdgh3D3E606-42" value="&lt;b&gt;DEFINITION OF ORCHESTRATION :&lt;/b&gt;&lt;div&gt;&lt;b&gt;&lt;br&gt;&lt;/b&gt;&lt;/div&gt;&lt;div&gt;&lt;b&gt;&lt;br&gt;&lt;/b&gt;&lt;/div&gt;" style="text;html=1;align=center;verticalAlign=middle;resizable=0;points=[];autosize=1;strokeColor=none;fillColor=none;" vertex="1" parent="1">
          <mxGeometry x="-90" y="4543" width="230" height="60" as="geometry" />
        </mxCell>
        <mxCell id="8CLcIwSxohdgh3D3E606-47" style="edgeStyle=orthogonalEdgeStyle;rounded=0;orthogonalLoop=1;jettySize=auto;html=1;entryX=0;entryY=0.5;entryDx=0;entryDy=0;" edge="1" parent="1" source="8CLcIwSxohdgh3D3E606-43" target="8CLcIwSxohdgh3D3E606-45">
          <mxGeometry relative="1" as="geometry" />
        </mxCell>
        <mxCell id="8CLcIwSxohdgh3D3E606-48" style="edgeStyle=orthogonalEdgeStyle;rounded=0;orthogonalLoop=1;jettySize=auto;html=1;exitX=1;exitY=0.5;exitDx=0;exitDy=0;entryX=0;entryY=0.5;entryDx=0;entryDy=0;" edge="1" parent="1" source="8CLcIwSxohdgh3D3E606-43" target="8CLcIwSxohdgh3D3E606-46">
          <mxGeometry relative="1" as="geometry" />
        </mxCell>
        <mxCell id="8CLcIwSxohdgh3D3E606-43" value="Student Registration&amp;nbsp;&lt;div&gt;Orchestration Service&lt;/div&gt;" style="rounded=1;whiteSpace=wrap;html=1;" vertex="1" parent="1">
          <mxGeometry x="-250" y="4700" width="120" height="60" as="geometry" />
        </mxCell>
        <mxCell id="8CLcIwSxohdgh3D3E606-44" value="SERVICE" style="rounded=1;whiteSpace=wrap;html=1;" vertex="1" parent="1">
          <mxGeometry x="295" y="3570" width="120" height="60" as="geometry" />
        </mxCell>
        <mxCell id="8CLcIwSxohdgh3D3E606-52" style="edgeStyle=orthogonalEdgeStyle;rounded=0;orthogonalLoop=1;jettySize=auto;html=1;exitX=1;exitY=0.5;exitDx=0;exitDy=0;entryX=0;entryY=0.5;entryDx=0;entryDy=0;" edge="1" parent="1" source="8CLcIwSxohdgh3D3E606-45" target="8CLcIwSxohdgh3D3E606-49">
          <mxGeometry relative="1" as="geometry" />
        </mxCell>
        <mxCell id="8CLcIwSxohdgh3D3E606-45" value="Student Service" style="rounded=1;whiteSpace=wrap;html=1;" vertex="1" parent="1">
          <mxGeometry x="-35" y="4640" width="120" height="60" as="geometry" />
        </mxCell>
        <mxCell id="8CLcIwSxohdgh3D3E606-51" style="edgeStyle=orthogonalEdgeStyle;rounded=0;orthogonalLoop=1;jettySize=auto;html=1;exitX=1;exitY=0.5;exitDx=0;exitDy=0;entryX=0;entryY=0.5;entryDx=0;entryDy=0;" edge="1" parent="1" source="8CLcIwSxohdgh3D3E606-46" target="8CLcIwSxohdgh3D3E606-50">
          <mxGeometry relative="1" as="geometry" />
        </mxCell>
        <mxCell id="8CLcIwSxohdgh3D3E606-46" value="Library Card Service" style="rounded=1;whiteSpace=wrap;html=1;" vertex="1" parent="1">
          <mxGeometry x="-35" y="4760" width="120" height="60" as="geometry" />
        </mxCell>
        <mxCell id="8CLcIwSxohdgh3D3E606-49" value="Student Storage Broker" style="rounded=1;whiteSpace=wrap;html=1;" vertex="1" parent="1">
          <mxGeometry x="160" y="4640" width="120" height="60" as="geometry" />
        </mxCell>
        <mxCell id="8CLcIwSxohdgh3D3E606-50" value="Library Card Storage Broker" style="rounded=1;whiteSpace=wrap;html=1;" vertex="1" parent="1">
          <mxGeometry x="160" y="4760" width="120" height="60" as="geometry" />
        </mxCell>
        <mxCell id="8CLcIwSxohdgh3D3E606-54" value="" style="endArrow=classic;html=1;rounded=0;exitX=1;exitY=0;exitDx=0;exitDy=0;" edge="1" parent="1" source="8CLcIwSxohdgh3D3E606-45">
          <mxGeometry width="50" height="50" relative="1" as="geometry">
            <mxPoint x="150" y="4610" as="sourcePoint" />
            <mxPoint x="240" y="4540" as="targetPoint" />
          </mxGeometry>
        </mxCell>
        <mxCell id="8CLcIwSxohdgh3D3E606-55" value="This guy just validate the data and call the broker and return if it&#39;s needed." style="text;html=1;align=center;verticalAlign=middle;resizable=0;points=[];autosize=1;strokeColor=none;fillColor=none;" vertex="1" parent="1">
          <mxGeometry x="200" y="4513" width="420" height="30" as="geometry" />
        </mxCell>
        <mxCell id="8CLcIwSxohdgh3D3E606-56" value="" style="endArrow=classic;html=1;rounded=0;" edge="1" parent="1">
          <mxGeometry width="50" height="50" relative="1" as="geometry">
            <mxPoint x="-200" y="4690" as="sourcePoint" />
            <mxPoint x="-320" y="4590" as="targetPoint" />
          </mxGeometry>
        </mxCell>
        <mxCell id="8CLcIwSxohdgh3D3E606-57" value="This guy just know how to delegate the work." style="text;html=1;align=center;verticalAlign=middle;resizable=0;points=[];autosize=1;strokeColor=none;fillColor=none;" vertex="1" parent="1">
          <mxGeometry x="-520" y="4538" width="260" height="30" as="geometry" />
        </mxCell>
        <mxCell id="8CLcIwSxohdgh3D3E606-58" value="&lt;font style=&quot;font-size: 18px;&quot;&gt;So, when you look at the big picture, every layer know what to do but don&#39;t know what service that it calls do ?&amp;nbsp;&lt;/font&gt;&lt;div style=&quot;font-size: 18px;&quot;&gt;&lt;font style=&quot;font-size: 18px;&quot;&gt;This is abstraction layer that gain us to write clean code..&lt;/font&gt;&lt;/div&gt;" style="text;html=1;align=center;verticalAlign=middle;resizable=0;points=[];autosize=1;strokeColor=none;fillColor=none;" vertex="1" parent="1">
          <mxGeometry x="-375" y="4900" width="900" height="60" as="geometry" />
        </mxCell>
        <mxCell id="8CLcIwSxohdgh3D3E606-60" style="edgeStyle=orthogonalEdgeStyle;rounded=0;orthogonalLoop=1;jettySize=auto;html=1;exitX=1;exitY=0.5;exitDx=0;exitDy=0;entryX=0;entryY=0.5;entryDx=0;entryDy=0;" edge="1" parent="1" source="8CLcIwSxohdgh3D3E606-59" target="8CLcIwSxohdgh3D3E606-43">
          <mxGeometry relative="1" as="geometry" />
        </mxCell>
        <mxCell id="8CLcIwSxohdgh3D3E606-59" value="Student Registrations API" style="rounded=0;whiteSpace=wrap;html=1;" vertex="1" parent="1">
          <mxGeometry x="-470" y="4700" width="120" height="60" as="geometry" />
        </mxCell>
        <mxCell id="8CLcIwSxohdgh3D3E606-61" value="&lt;b&gt;&lt;font style=&quot;font-size: 20px;&quot;&gt;GENERAL STRUCTURE :&amp;nbsp;&lt;/font&gt;&lt;/b&gt;" style="text;html=1;align=center;verticalAlign=middle;resizable=0;points=[];autosize=1;strokeColor=none;fillColor=none;" vertex="1" parent="1">
          <mxGeometry x="-155" y="5053" width="270" height="40" as="geometry" />
        </mxCell>
        <mxCell id="8CLcIwSxohdgh3D3E606-65" style="edgeStyle=orthogonalEdgeStyle;rounded=0;orthogonalLoop=1;jettySize=auto;html=1;exitX=1;exitY=0.5;exitDx=0;exitDy=0;entryX=0;entryY=0.5;entryDx=0;entryDy=0;" edge="1" parent="1" source="8CLcIwSxohdgh3D3E606-62" target="8CLcIwSxohdgh3D3E606-63">
          <mxGeometry relative="1" as="geometry" />
        </mxCell>
        <mxCell id="8CLcIwSxohdgh3D3E606-62" value="&lt;b&gt;EXPOSURE&amp;nbsp;&lt;/b&gt;" style="rounded=1;whiteSpace=wrap;html=1;fillColor=#60a917;fontColor=#ffffff;strokeColor=#2D7600;" vertex="1" parent="1">
          <mxGeometry x="-410" y="5130" width="120" height="60" as="geometry" />
        </mxCell>
        <mxCell id="8CLcIwSxohdgh3D3E606-66" style="edgeStyle=orthogonalEdgeStyle;rounded=0;orthogonalLoop=1;jettySize=auto;html=1;exitX=1;exitY=0.5;exitDx=0;exitDy=0;entryX=0;entryY=0.5;entryDx=0;entryDy=0;" edge="1" parent="1" source="8CLcIwSxohdgh3D3E606-63" target="8CLcIwSxohdgh3D3E606-64">
          <mxGeometry relative="1" as="geometry" />
        </mxCell>
        <mxCell id="8CLcIwSxohdgh3D3E606-63" value="&lt;b&gt;EXPOSURE&amp;nbsp;&lt;/b&gt;" style="rounded=1;whiteSpace=wrap;html=1;fillColor=#6a00ff;fontColor=#ffffff;strokeColor=#3700CC;" vertex="1" parent="1">
          <mxGeometry x="-80" y="5130" width="120" height="60" as="geometry" />
        </mxCell>
        <mxCell id="8CLcIwSxohdgh3D3E606-64" value="&lt;b&gt;EXPOSURE&amp;nbsp;&lt;/b&gt;" style="rounded=1;whiteSpace=wrap;html=1;fillColor=#1ba1e2;fontColor=#ffffff;strokeColor=#006EAF;" vertex="1" parent="1">
          <mxGeometry x="290" y="5130" width="120" height="60" as="geometry" />
        </mxCell>
        <mxCell id="8CLcIwSxohdgh3D3E606-67" value="UI" style="rounded=1;whiteSpace=wrap;html=1;" vertex="1" parent="1">
          <mxGeometry x="-410" y="5230" width="120" height="60" as="geometry" />
        </mxCell>
        <mxCell id="8CLcIwSxohdgh3D3E606-68" value="SDK" style="rounded=1;whiteSpace=wrap;html=1;" vertex="1" parent="1">
          <mxGeometry x="-410" y="5350" width="120" height="60" as="geometry" />
        </mxCell>
        <mxCell id="8CLcIwSxohdgh3D3E606-69" value="PROTOCOL" style="rounded=1;whiteSpace=wrap;html=1;" vertex="1" parent="1">
          <mxGeometry x="-410" y="5480" width="120" height="60" as="geometry" />
        </mxCell>
        <mxCell id="8CLcIwSxohdgh3D3E606-70" value="Primitive&amp;nbsp;" style="rounded=1;whiteSpace=wrap;html=1;" vertex="1" parent="1">
          <mxGeometry x="-80" y="5240" width="120" height="60" as="geometry" />
        </mxCell>
        <mxCell id="8CLcIwSxohdgh3D3E606-71" value="Higher-Order" style="rounded=1;whiteSpace=wrap;html=1;" vertex="1" parent="1">
          <mxGeometry x="-70" y="5350" width="120" height="60" as="geometry" />
        </mxCell>
        <mxCell id="8CLcIwSxohdgh3D3E606-72" value="Orchesterators" style="rounded=1;whiteSpace=wrap;html=1;" vertex="1" parent="1">
          <mxGeometry x="-80" y="5480" width="120" height="60" as="geometry" />
        </mxCell>
        <mxCell id="8CLcIwSxohdgh3D3E606-73" value="External Consuming Brokers&lt;span style=&quot;color: rgba(0, 0, 0, 0); font-family: monospace; font-size: 0px; text-align: start; text-wrap: nowrap;&quot;&gt;%3CmxGraphModel%3E%3Croot%3E%3CmxCell%20id%3D%220%22%2F%3E%3CmxCell%20id%3D%221%22%20parent%3D%220%22%2F%3E%3CmxCell%20id%3D%222%22%20value%3D%22Primitive%26amp%3Bnbsp%3B%22%20style%3D%22rounded%3D1%3BwhiteSpace%3Dwrap%3Bhtml%3D1%3B%22%20vertex%3D%221%22%20parent%3D%221%22%3E%3CmxGeometry%20x%3D%22-80%22%20y%3D%225240%22%20width%3D%22120%22%20height%3D%2260%22%20as%3D%22geometry%22%2F%3E%3C%2FmxCell%3E%3C%2Froot%3E%3C%2FmxGraphModel%3E&lt;/span&gt;" style="rounded=1;whiteSpace=wrap;html=1;" vertex="1" parent="1">
          <mxGeometry x="295" y="5230" width="120" height="60" as="geometry" />
        </mxCell>
        <mxCell id="8CLcIwSxohdgh3D3E606-79" style="edgeStyle=orthogonalEdgeStyle;rounded=0;orthogonalLoop=1;jettySize=auto;html=1;exitX=1;exitY=0.5;exitDx=0;exitDy=0;" edge="1" parent="1" source="8CLcIwSxohdgh3D3E606-74" target="8CLcIwSxohdgh3D3E606-78">
          <mxGeometry relative="1" as="geometry" />
        </mxCell>
        <mxCell id="8CLcIwSxohdgh3D3E606-74" value="Internal Consuming Brokers" style="rounded=1;whiteSpace=wrap;html=1;" vertex="1" parent="1">
          <mxGeometry x="300" y="5350" width="120" height="60" as="geometry" />
        </mxCell>
        <mxCell id="8CLcIwSxohdgh3D3E606-75" value="Near Consuming Brokers" style="rounded=1;whiteSpace=wrap;html=1;" vertex="1" parent="1">
          <mxGeometry x="300" y="5470" width="120" height="60" as="geometry" />
        </mxCell>
        <mxCell id="8CLcIwSxohdgh3D3E606-76" value="SendGrid(External API)" style="ellipse;shape=cloud;whiteSpace=wrap;html=1;" vertex="1" parent="1">
          <mxGeometry x="527.5" y="5210" width="212.5" height="90" as="geometry" />
        </mxCell>
        <mxCell id="8CLcIwSxohdgh3D3E606-77" style="edgeStyle=orthogonalEdgeStyle;rounded=0;orthogonalLoop=1;jettySize=auto;html=1;exitX=1;exitY=0.5;exitDx=0;exitDy=0;entryX=0.16;entryY=0.55;entryDx=0;entryDy=0;entryPerimeter=0;" edge="1" parent="1" source="8CLcIwSxohdgh3D3E606-73" target="8CLcIwSxohdgh3D3E606-76">
          <mxGeometry relative="1" as="geometry" />
        </mxCell>
        <mxCell id="8CLcIwSxohdgh3D3E606-78" value="DateTime" style="shape=process;whiteSpace=wrap;html=1;backgroundOutline=1;" vertex="1" parent="1">
          <mxGeometry x="570" y="5360" width="120" height="60" as="geometry" />
        </mxCell>
        <mxCell id="8CLcIwSxohdgh3D3E606-81" value="DB" style="shape=cylinder3;whiteSpace=wrap;html=1;boundedLbl=1;backgroundOutline=1;size=15;" vertex="1" parent="1">
          <mxGeometry x="600" y="5470" width="60" height="80" as="geometry" />
        </mxCell>
        <mxCell id="8CLcIwSxohdgh3D3E606-82" style="edgeStyle=orthogonalEdgeStyle;rounded=0;orthogonalLoop=1;jettySize=auto;html=1;exitX=1;exitY=0.5;exitDx=0;exitDy=0;entryX=0;entryY=0.5;entryDx=0;entryDy=0;entryPerimeter=0;" edge="1" parent="1" source="8CLcIwSxohdgh3D3E606-75" target="8CLcIwSxohdgh3D3E606-81">
          <mxGeometry relative="1" as="geometry" />
        </mxCell>
        <mxCell id="8CLcIwSxohdgh3D3E606-83" value="&lt;b&gt;&lt;font style=&quot;font-size: 20px;&quot;&gt;Observer Pattern&lt;/font&gt;&lt;/b&gt;" style="text;html=1;align=center;verticalAlign=middle;resizable=0;points=[];autosize=1;strokeColor=none;fillColor=none;" vertex="1" parent="1">
          <mxGeometry x="-165" y="5733" width="190" height="40" as="geometry" />
        </mxCell>
        <mxCell id="8CLcIwSxohdgh3D3E606-84" value="Student Registration Event Orchestration Service" style="rounded=1;whiteSpace=wrap;html=1;" vertex="1" parent="1">
          <mxGeometry x="-340" y="5930" width="120" height="60" as="geometry" />
        </mxCell>
        <mxCell id="8CLcIwSxohdgh3D3E606-97" style="edgeStyle=orthogonalEdgeStyle;rounded=0;orthogonalLoop=1;jettySize=auto;html=1;exitX=1;exitY=0.5;exitDx=0;exitDy=0;entryX=0;entryY=0.5;entryDx=0;entryDy=0;" edge="1" parent="1" source="8CLcIwSxohdgh3D3E606-85" target="8CLcIwSxohdgh3D3E606-87">
          <mxGeometry relative="1" as="geometry" />
        </mxCell>
        <mxCell id="8CLcIwSxohdgh3D3E606-85" value="Student Service" style="rounded=1;whiteSpace=wrap;html=1;" vertex="1" parent="1">
          <mxGeometry x="-140" y="5840" width="120" height="60" as="geometry" />
        </mxCell>
        <mxCell id="8CLcIwSxohdgh3D3E606-95" style="edgeStyle=orthogonalEdgeStyle;rounded=0;orthogonalLoop=1;jettySize=auto;html=1;exitX=0;exitY=0.5;exitDx=0;exitDy=0;entryX=1;entryY=0.5;entryDx=0;entryDy=0;" edge="1" parent="1" source="8CLcIwSxohdgh3D3E606-86" target="8CLcIwSxohdgh3D3E606-84">
          <mxGeometry relative="1" as="geometry">
            <Array as="points">
              <mxPoint x="-160" y="6060" />
              <mxPoint x="-160" y="5960" />
            </Array>
          </mxGeometry>
        </mxCell>
        <mxCell id="8CLcIwSxohdgh3D3E606-96" style="edgeStyle=orthogonalEdgeStyle;rounded=0;orthogonalLoop=1;jettySize=auto;html=1;exitX=0;exitY=0.5;exitDx=0;exitDy=0;entryX=0;entryY=0.5;entryDx=0;entryDy=0;" edge="1" parent="1" source="8CLcIwSxohdgh3D3E606-86" target="8CLcIwSxohdgh3D3E606-85">
          <mxGeometry relative="1" as="geometry" />
        </mxCell>
        <mxCell id="8CLcIwSxohdgh3D3E606-86" value="Event Servvce" style="rounded=1;whiteSpace=wrap;html=1;" vertex="1" parent="1">
          <mxGeometry x="-140" y="6030" width="120" height="60" as="geometry" />
        </mxCell>
        <mxCell id="8CLcIwSxohdgh3D3E606-87" value="Student Storage Broker" style="rounded=1;whiteSpace=wrap;html=1;" vertex="1" parent="1">
          <mxGeometry x="75" y="5840" width="120" height="60" as="geometry" />
        </mxCell>
        <mxCell id="8CLcIwSxohdgh3D3E606-94" style="edgeStyle=orthogonalEdgeStyle;rounded=0;orthogonalLoop=1;jettySize=auto;html=1;exitX=0;exitY=0.5;exitDx=0;exitDy=0;entryX=1;entryY=0.5;entryDx=0;entryDy=0;" edge="1" parent="1" source="8CLcIwSxohdgh3D3E606-88" target="8CLcIwSxohdgh3D3E606-86">
          <mxGeometry relative="1" as="geometry" />
        </mxCell>
        <mxCell id="8CLcIwSxohdgh3D3E606-88" value="Event Broker" style="rounded=1;whiteSpace=wrap;html=1;" vertex="1" parent="1">
          <mxGeometry x="75" y="6030" width="120" height="60" as="geometry" />
        </mxCell>
        <mxCell id="8CLcIwSxohdgh3D3E606-89" value="" style="shape=cylinder3;whiteSpace=wrap;html=1;boundedLbl=1;backgroundOutline=1;size=15;" vertex="1" parent="1">
          <mxGeometry x="335" y="5830" width="60" height="80" as="geometry" />
        </mxCell>
        <mxCell id="8CLcIwSxohdgh3D3E606-93" style="edgeStyle=orthogonalEdgeStyle;rounded=0;orthogonalLoop=1;jettySize=auto;html=1;exitX=0.5;exitY=0;exitDx=0;exitDy=0;exitPerimeter=0;entryX=1;entryY=0.5;entryDx=0;entryDy=0;" edge="1" parent="1" source="8CLcIwSxohdgh3D3E606-90" target="8CLcIwSxohdgh3D3E606-88">
          <mxGeometry relative="1" as="geometry" />
        </mxCell>
        <mxCell id="8CLcIwSxohdgh3D3E606-90" value="" style="shape=cylinder3;whiteSpace=wrap;html=1;boundedLbl=1;backgroundOutline=1;size=15;rotation=-90;" vertex="1" parent="1">
          <mxGeometry x="335" y="6010" width="60" height="80" as="geometry" />
        </mxCell>
        <mxCell id="8CLcIwSxohdgh3D3E606-91" value="External Request/Message" style="ellipse;shape=cloud;whiteSpace=wrap;html=1;" vertex="1" parent="1">
          <mxGeometry x="500" y="6010" width="120" height="80" as="geometry" />
        </mxCell>
        <mxCell id="8CLcIwSxohdgh3D3E606-92" style="edgeStyle=orthogonalEdgeStyle;rounded=0;orthogonalLoop=1;jettySize=auto;html=1;exitX=0.07;exitY=0.4;exitDx=0;exitDy=0;exitPerimeter=0;entryX=0.5;entryY=1;entryDx=0;entryDy=0;entryPerimeter=0;" edge="1" parent="1" source="8CLcIwSxohdgh3D3E606-91" target="8CLcIwSxohdgh3D3E606-90">
          <mxGeometry relative="1" as="geometry" />
        </mxCell>
        <mxCell id="8CLcIwSxohdgh3D3E606-98" style="edgeStyle=orthogonalEdgeStyle;rounded=0;orthogonalLoop=1;jettySize=auto;html=1;exitX=1;exitY=0.5;exitDx=0;exitDy=0;entryX=0;entryY=0.5;entryDx=0;entryDy=0;entryPerimeter=0;" edge="1" parent="1" source="8CLcIwSxohdgh3D3E606-87" target="8CLcIwSxohdgh3D3E606-89">
          <mxGeometry relative="1" as="geometry" />
        </mxCell>
        <mxCell id="8CLcIwSxohdgh3D3E606-101" style="edgeStyle=orthogonalEdgeStyle;rounded=0;orthogonalLoop=1;jettySize=auto;html=1;entryX=0;entryY=0.5;entryDx=0;entryDy=0;" edge="1" parent="1" source="8CLcIwSxohdgh3D3E606-100" target="8CLcIwSxohdgh3D3E606-25">
          <mxGeometry relative="1" as="geometry" />
        </mxCell>
        <mxCell id="8CLcIwSxohdgh3D3E606-100" value="UI" style="html=1;verticalLabelPosition=bottom;labelBackgroundColor=#ffffff;verticalAlign=top;shadow=0;dashed=0;strokeWidth=1;shape=mxgraph.ios7.misc.iphone;strokeColor=#c0c0c0;" vertex="1" parent="1">
          <mxGeometry x="-500" y="3729" width="200" height="400" as="geometry" />
        </mxCell>
        <mxCell id="8CLcIwSxohdgh3D3E606-102" value="&lt;b&gt;&lt;font style=&quot;font-size: 20px;&quot;&gt;Where i remained&amp;nbsp; :&amp;nbsp;&lt;/font&gt;&lt;/b&gt;&lt;span style=&quot;font-size: 20px;&quot;&gt;&lt;b&gt;https://youtu.be/eHnjdR9DvGk?feature=shared&amp;amp;t=2897&lt;/b&gt;&lt;/span&gt;" style="text;html=1;align=center;verticalAlign=middle;resizable=0;points=[];autosize=1;strokeColor=none;fillColor=none;" vertex="1" parent="1">
          <mxGeometry x="-500" y="6340" width="740" height="40" as="geometry" />
        </mxCell>
      </root>
    </mxGraphModel>
  </diagram>
</mxfile>
